<?xml version="1.0" encoding="utf-8"?>
<!-- Generator: Adobe Illustrator 24.1.0, SVG Export Plug-In . SVG Version: 6.00 Build 0)  -->
<svg version="1.1" id="Layer_1" xmlns="http://www.w3.org/2000/svg" xmlns:xlink="http://www.w3.org/1999/xlink" x="0px" y="0px"
	 viewBox="0 0 135.8 75" style="enable-background:new 0 0 135.8 75;" xml:space="preserve">
<style type="text/css">
	.st0{fill:#FFEC00;}
	.st1{fill-rule:evenodd;clip-rule:evenodd;fill:#00A417;}
	.st2{fill:#FFDF00;}
	.st3{fill-rule:evenodd;clip-rule:evenodd;fill:#009540;}
	.st4{fill:#00A417;}
</style>
<path class="st0" d="M49.4,34.6L46.7,33c-0.8-0.4-1.7-0.4-2.5,0l-2.7,1.6v-3.1c0-0.9-0.5-1.7-1.2-2.1l-2.7-1.6l2.7-1.6
	c0.8-0.4,1.2-1.2,1.2-2.1v-3.1l2.7,1.6c0.8,0.5,1.7,0.5,2.5,0l2.7-1.6v3.1c0,0.9,0.5,1.7,1.2,2.1l2.7,1.6l-2.8,1.5
	c-0.8,0.4-1.2,1.2-1.2,2.1V34.6z M40.8,27.8l0.3,0.2c1.3,0.7,2,2.1,2,3.5v0.3l0.3-0.2c1.3-0.7,2.8-0.7,4.1,0l0.3,0.2v-0.3
	c0-1.5,0.8-2.8,2-3.5l0.3-0.2l-0.3-0.2c-1.3-0.7-2-2.1-2-3.5v-0.3l-0.3,0.2c-1.3,0.7-2.8,0.7-4.1,0l-0.3-0.2v0.3
	c0,1.4-0.7,2.8-2,3.5L40.8,27.8z"/>
<path class="st1" d="M45.4,49.9c12.2,0,22.2-9.9,22.2-22.1c0-12.2-9.9-22.2-22.1-22.2c-12.2,0-22.2,9.9-22.2,22.1
	c0,5.9,2.3,11.6,6.5,15.8C33.9,47.6,39.6,49.9,45.4,49.9z"/>
<path class="st2" d="M45.4,50.7c-12.7,0-22.9-10.3-22.9-23c0-9.3,5.6-17.6,14.2-21.2c2.8-1.2,5.8-1.8,8.8-1.8l0,0
	c6.1,0,11.9,2.4,16.2,6.7c4.3,4.3,6.7,10.2,6.7,16.2c0,9.3-5.6,17.6-14.2,21.2C51.4,50.1,48.4,50.7,45.4,50.7L45.4,50.7L45.4,50.7z
	 M45.4,6.4L45.4,6.4C33.6,6.4,24,16,24,27.8s9.6,21.3,21.3,21.3l0,0c11.8,0,21.3-9.6,21.3-21.3S57.2,6.4,45.4,6.4z"/>
<path class="st3" d="M34.5,25.1l4.6,2.7l-4.6,2.7c-1,0.6-2.2,0.6-3.3,0l-4.6-2.7l4.6-2.7C32.3,24.5,33.5,24.5,34.5,25.1z M34.5,25.1
	c-1-0.6-2.2-0.6-3.3,0l-4.6,2.7l4.6,2.7c1,0.6,2.2,0.6,3.3,0l4.6-2.7L34.5,25.1z"/>
<path class="st2" d="M32.9,31.7c-0.7,0-1.4-0.2-2-0.5L25,27.8l5.8-3.3c1.3-0.7,2.8-0.7,4.1,0l0,0l5.8,3.3l-5.8,3.3
	C34.3,31.5,33.6,31.7,32.9,31.7z M28.2,27.8l3.4,2c0.8,0.4,1.7,0.4,2.5,0l3.4-2l-3.4-2l0,0c-0.8-0.4-1.7-0.4-2.5,0L28.2,27.8z"/>
<path class="st3" d="M37.6,35.9l4.6-2.7v5.3c0,1.2-0.6,2.2-1.6,2.8L36,44.1v-5.3C36,37.6,36.6,36.5,37.6,35.9z M37.6,35.9
	c-1,0.6-1.6,1.7-1.6,2.8v5.3l4.6-2.7c1-0.6,1.6-1.7,1.6-2.8v-5.3L37.6,35.9z"/>
<path class="st2" d="M35.2,45.4v-6.8c0-1.5,0.8-2.8,2-3.5l0,0l5.8-3.3v6.8c0,1.4-0.8,2.8-2,3.5L35.2,45.4z M38,36.5
	c-0.8,0.4-1.2,1.2-1.2,2.1v4l3.4-2c0.8-0.4,1.2-1.2,1.2-2.1v-3.9L38,36.5z"/>
<path class="st3" d="M48.5,38.5v-5.3l4.6,2.7c1,0.6,1.6,1.7,1.6,2.8v5.3l-4.6-2.7C49.1,40.8,48.5,39.7,48.5,38.5z M48.5,38.6
	c0,1.2,0.6,2.2,1.6,2.8l4.6,2.7v-5.3c0-1.2-0.6-2.2-1.6-2.8l-4.6-2.7L48.5,38.6z"/>
<path class="st2" d="M55.6,45.4l-5.8-3.3c-1.3-0.7-2-2.1-2-3.5v-6.8l5.8,3.3c1.3,0.7,2,2.1,2,3.6V45.4z M49.4,38.5
	c0,0.9,0.5,1.7,1.2,2.1l3.4,1.9v-3.9c0-0.9-0.5-1.7-1.2-2.1l-3.4-2V38.5z"/>
<path class="st2" d="M57.9,31.7c-0.7,0-1.4-0.2-2-0.5l0,0l-5.8-3.3l5.8-3.3c1.3-0.7,2.8-0.7,4.1,0l5.8,3.3L60,31.1
	C59.3,31.5,58.6,31.7,57.9,31.7z M56.7,29.7c0.8,0.4,1.7,0.4,2.5,0l3.4-2l-3.4-2c-0.8-0.4-1.7-0.4-2.5,0l-3.4,2L56.7,29.7z"/>
<path class="st2" d="M47.7,23.7V17c0-1.4,0.8-2.8,2-3.5l5.8-3.3v6.7c0,1.4-0.8,2.8-2,3.5l0,0L47.7,23.7z M54,12.9l-3.4,2
	c-0.7,0.4-1.2,1.2-1.2,2.1v4l3.4-2c0.8-0.4,1.2-1.2,1.2-2.1L54,12.9z"/>
<path class="st2" d="M43.1,23.7l-5.8-3.3c-1.3-0.7-2-2.1-2-3.5v-6.8l5.8,3.3c1.3,0.7,2,2.1,2,3.5V23.7z M36.8,12.9v4
	c0,0.9,0.5,1.7,1.2,2.1l3.4,2v-4c0-0.9-0.5-1.7-1.2-2.1L36.8,12.9z"/>
<path class="st2" d="M49.4,34.6L46.7,33c-0.8-0.4-1.7-0.4-2.5,0l-2.7,1.6v-3.1c0-0.9-0.5-1.7-1.2-2.1l-2.7-1.6l2.7-1.6
	c0.8-0.4,1.2-1.2,1.2-2.1v-3.1l2.7,1.6c0.8,0.5,1.7,0.5,2.5,0l2.7-1.6v3.1c0,0.9,0.5,1.7,1.2,2.1l2.7,1.6l-2.8,1.5
	c-0.8,0.4-1.2,1.2-1.2,2.1V34.6z M40.8,27.8l0.3,0.2c1.3,0.7,2,2.1,2,3.5v0.3l0.3-0.2c1.3-0.7,2.8-0.7,4.1,0l0.3,0.2v-0.3
	c0-1.5,0.8-2.8,2-3.5l0.3-0.2l-0.3-0.2c-1.3-0.7-2-2.1-2-3.5v-0.3l-0.3,0.2c-1.3,0.7-2.8,0.7-4.1,0l-0.3-0.2v0.3
	c0,1.4-0.7,2.8-2,3.5L40.8,27.8z"/>
<path class="st4" d="M67.7,5.9V3.4h1.1c0.2,0,0.3,0,0.5,0.1c0.1,0,0.2,0.1,0.3,0.2c0.1,0.1,0.1,0.2,0.1,0.4c0,0.2-0.1,0.3-0.2,0.4
	c-0.2,0.1-0.3,0.2-0.5,0.2c0.1,0,0.1,0.1,0.2,0.1L69.3,5l0,0l0,0l0.1,0.1l0.1,0.1l0.4,0.7h-0.4l-0.3-0.5L69,5.1
	c-0.1-0.1-0.1-0.1-0.2-0.2l-0.1-0.1h-0.6v1.1L67.7,5.9z M68,4.5h0.7c0.1,0,0.2,0,0.3,0c0.1,0,0.1-0.1,0.2-0.2c0-0.1,0.1-0.1,0.1-0.2
	c0-0.1,0-0.2-0.1-0.3c-0.1-0.1-0.3-0.1-0.4-0.1H68V4.5z"/>
<path class="st4" d="M68.7,2.4c-1.2,0-2.2,1-2.2,2.2s1,2.2,2.2,2.2c1.2,0,2.2-1,2.2-2.2C70.9,3.4,69.9,2.4,68.7,2.4
	C68.7,2.4,68.7,2.4,68.7,2.4z M68.7,6.7c-1.1,0-2-0.9-2-2s0.9-2,2-2c1.1,0,2,0.9,2,2c0,0,0,0,0,0C70.6,5.8,69.7,6.7,68.7,6.7z"/>
<path class="st4" d="M11.9,56.6l1.2-0.6h2.6l1.2,0.7V58h-1.4v-0.8h-2.1v1.7h2.3l1.2,0.7v3l-1.2,0.7H13l-1.2-0.7v-1.4h1.5V62h2.2
	v-1.8h-2.4l-1.2-0.7V56.6z"/>
<path class="st4" d="M21.6,63.2h-1.4v-6h-1.9V56h5.3v1.2h-1.9V63.2z"/>
<path class="st4" d="M30.3,63.2h-1.4l-0.5-1.6h-2.7l-0.5,1.6h-1.4l2.6-7.2h1.5L30.3,63.2z M26.1,60.4h1.8L27,57.8l0,0L26.1,60.4z"/>
<path class="st4" d="M35.5,63.2l-1.5-2.8H33v2.7h-1.4V56h4l1.2,0.7v3.1l-1.2,0.6l1.6,2.7L35.5,63.2z M33,59.2h2.2v-2H33L33,59.2z"/>
<path class="st4" d="M44.1,59.4h2.6v3.1l-1.2,0.7h-2.9l-1.2-0.7v-6l1.2-0.6h2.9l1.2,0.7v1.5h-1.4v-0.9h-2.4v4.9h2.4v-1.4h-1.2V59.4z
	"/>
<path class="st4" d="M48.6,56H50v6h2.5v1.2h-3.9V56z"/>
<path class="st4" d="M58.3,63.2h-3.2l-1.2-0.7v-6l1.2-0.6h3.2l1.2,0.7v6L58.3,63.2z M55.3,62h2.7v-4.9h-2.7V62z"/>
<path class="st4" d="M65.7,59.4L65.7,59.4l0.9,0.5v2.5l-1.2,0.7h-3.9V56h3.9l1.2,0.7v2.2L65.7,59.4z M62.9,58.8h2.2v-1.6h-2.2V58.8z
	 M62.9,61.9h2.2v-1.9h-2.2V61.9z"/>
<path class="st4" d="M74.5,63.2H73l-0.5-1.6h-2.7l-0.5,1.6h-1.4l2.5-7.2h1.5L74.5,63.2z M70.2,60.4h1.8l-0.9-2.6l0,0L70.2,60.4z"/>
<path class="st4" d="M75.7,56h1.4v6h2.5v1.2h-3.9V56z"/>
<path class="st4" d="M11.9,70.3L11.4,70l0.1-0.5h0.5v0.4h1.2l0.1-1.1h-0.9v-0.4h0.9l0.1-1h-1.3v0.4h-0.5v-0.5l0.6-0.3h1.1l0.5,0.3
	l-0.1,1l-0.4,0.2l0,0l0.4,0.2l-0.1,1.1L13,70.2L11.9,70.3z"/>
<path class="st4" d="M16.5,70.3h-1.9l0.3-3.3h1.9l0.5,0.3l-0.3,2.6L16.5,70.3z M15.1,69.8h1.5l0.3-2.4h-1.5L15.1,69.8z"/>
<path class="st4" d="M21.2,69.9l-0.6,0.3h-1.2v-0.4h1.3l0.1-0.6H20L19.5,69l0.1-0.7l0.6-0.3h1.1v0.4h-1.2v0.5h0.7l0.5,0.3L21.2,69.9
	z"/>
<path class="st4" d="M22.6,69.8h1.3v0.4h-1.2l-0.4-0.3l0.1-1.7l0.6-0.3H24v0.4h-1.3L22.6,69.8z"/>
<path class="st4" d="M26.6,70.3h-0.1l-0.3-0.2l-0.3,0.2h-0.6L24.7,70l0.2-1.7l0.6-0.3H26l0.3,0.2l0.3-0.2h0.1L26.6,70.3z M25.1,69.9
	h1l0.2-1.6h-1L25.1,69.9z"/>
<path class="st4" d="M29.5,70.3H29l0.2-1.9h-1.1l-0.2,1.9h-0.4l0.3-2.4h0.3l0.1,0.2l0.4-0.2h0.6l0.5,0.3L29.5,70.3z"/>
<path class="st4" d="M32.4,70.3h-0.4l0.2-1.9h-1l-0.2,1.9h-0.4l0.2-2.4H31l0.1,0.2l0.4-0.2h0.6l0.5,0.3L32.4,70.3z"/>
<path class="st4" d="M33.7,70.3h-0.4l0.2-2.3H34L33.7,70.3z M33.6,66.9h0.5v0.5h-0.5V66.9z"/>
<path class="st4" d="M36.7,70.3h-0.4l0.2-1.9h-1.1l-0.2,1.9h-0.4l0.2-2.4h0.3l0.1,0.2l0.3-0.2h0.6l0.5,0.3L36.7,70.3z"/>
<path class="st4" d="M39.8,67.9l-0.3,3l-0.6,0.3h-1.1v-0.4H39l0.1-0.8l-0.3,0.2h-0.6l-0.5-0.3l0.1-1.7l0.6-0.3H39l0.3,0.2l0.3-0.2
	L39.8,67.9z M39.1,69.8l0.2-1.5h-1.1L38,69.8H39.1z"/>
<path class="st4" d="M43.7,70.3h-1.3l-0.5-0.3l0.2-1.7l0.6-0.3h0.7l0.5,0.3l-0.1,1h-1.4v0.6h1.4L43.7,70.3z M42.5,68.8h0.9v-0.5
	h-0.9V68.8z"/>
<path class="st4" d="M45.3,69.1l-0.7-1.1h0.5l0.5,0.8l0.6-0.8h0.5l-0.9,1.1l0.7,1.2H46l-0.4-0.9l-0.7,0.9h-0.5L45.3,69.1z"/>
<path class="st4" d="M47.9,70.3l-0.3-0.2l-0.1,1.1h-0.4l0.3-3.3h0.4l0.1,0.2l0.4-0.2h0.7l0.5,0.3L49.2,70l-0.6,0.3L47.9,70.3z
	 M47.6,69.9h1.1l0.2-1.6h-1.1L47.6,69.9z"/>
<path class="st4" d="M51.9,70.3h-1.3l-0.5-0.3l0.2-1.7l0.6-0.3h0.7l0.5,0.3l-0.1,1h-1.4l-0.1,0.6h1.4L51.9,70.3z M50.7,68.8h0.9
	v-0.5h-0.9V68.8z"/>
<path class="st4" d="M53.5,68.3l-0.2,1.9h-0.4l0.2-2.3h0.3l0.1,0.2l0.3-0.2h0.5v0.4L53.5,68.3z"/>
<path class="st4" d="M54.9,67.9h0.4v-0.4l0.5-0.3l-0.1,0.6h0.6v0.4h-0.5l-0.1,1.5h0.5v0.4h-0.5l-0.5-0.3l0.2-1.6h-0.4L54.9,67.9z"/>
<path class="st4" d="M60.1,69.9l-0.6,0.3h-1.2v-0.4h1.3v-0.6h-0.7L58.4,69l0.1-0.7l0.6-0.3h1.1v0.4H59v0.5h0.7l0.5,0.3L60.1,69.9z"
	/>
<path class="st4" d="M62.4,70.3h-0.9L61,70l0.2-1.7l0.6-0.3h0.9l0.5,0.3L63,70L62.4,70.3z M61.5,69.9h1.1l0.2-1.6h-1.1L61.5,69.9z"
	/>
<path class="st4" d="M63.9,69.9l0.3-3.1h0.4l-0.3,3H65v0.4h-0.5L63.9,69.9z"/>
<path class="st4" d="M65.8,67.9h0.4l-0.2,1.9h1.1l0.2-1.9h0.4l-0.2,2.4h-0.3l-0.1-0.2l-0.3,0.2h-0.7L65.6,70L65.8,67.9z"/>
<path class="st4" d="M68.5,67.9H69v-0.4l0.5-0.3l-0.1,0.6h0.5v0.4h-0.6l-0.2,1.5h0.6v0.4h-0.5l-0.5-0.3l0.2-1.6h-0.4L68.5,67.9z"/>
<path class="st4" d="M71,70.3h-0.4l0.2-2.3h0.4L71,70.3z M70.9,66.9h0.5v0.5h-0.5V66.9z"/>
<path class="st4" d="M73.4,70.3h-0.9L72,70l0.1-1.7l0.6-0.3h0.9l0.5,0.3L73.9,70L73.4,70.3z M72.5,69.9h1.1l0.2-1.6h-1.1L72.5,69.9z
	"/>
<path class="st4" d="M76.8,70.3h-0.4l0.2-1.9h-1.1l-0.2,1.9h-0.4l0.2-2.4h0.3l0.1,0.2l0.3-0.2h0.6l0.5,0.3L76.8,70.3z"/>
<path class="st4" d="M79.5,69.9l-0.6,0.3h-1.2v-0.4H79l0.1-0.6h-0.7L77.8,69l0.1-0.7l0.6-0.3h1.1v0.4h-1.2v0.5h0.7l0.5,0.3
	L79.5,69.9z"/>
</svg>
