<svg id="Layer_1" data-name="Layer 1" xmlns="http://www.w3.org/2000/svg" viewBox="0 0 528 130"><defs><style>.cls-1{fill:#ffec00;}.cls-2,.cls-5{fill:#00a417;}.cls-2,.cls-4{fill-rule:evenodd;}.cls-3{fill:#ffdf00;}.cls-4{fill:#009540;}</style></defs><title>LOGO-STARGLOBAL</title><path class="cls-1" d="M73.78,84.31l-7.15-4.12a6.42,6.42,0,0,0-6.43,0l-7.15,4.12V76.06a6.45,6.45,0,0,0-3.21-5.57l-7.15-4.13,7.15-4.12a6.47,6.47,0,0,0,3.21-5.57V48.41l7.15,4.13a6.47,6.47,0,0,0,6.43,0l7.15-4.13v8.26A6.42,6.42,0,0,0,77,62.23l7.14,4.13L77,70.49a6.43,6.43,0,0,0-3.22,5.57Zm-22.58-18,.76.44a10.73,10.73,0,0,1,5.35,9.26v.88l.76-.44a10.74,10.74,0,0,1,10.69,0l.77.44v-.88a10.72,10.72,0,0,1,5.34-9.26l.77-.44-.77-.44a10.7,10.7,0,0,1-5.34-9.25v-.89l-.77.44a10.69,10.69,0,0,1-10.69,0l-.76-.44v.89A10.71,10.71,0,0,1,52,65.92Z"/><path class="cls-2" d="M63.42,124.65a58.33,58.33,0,1,0-41.18-17.06A58.3,58.3,0,0,0,63.42,124.65Z"/><path class="cls-3" d="M63.38,126.78a60.4,60.4,0,0,1-42.7-103.1A60.44,60.44,0,0,1,63.42,5.94h0a60.42,60.42,0,0,1,0,120.84h0ZM63.45,10.2h0a56.14,56.14,0,0,0-39.68,95.89,55.73,55.73,0,0,0,39.64,16.43h0a56.14,56.14,0,0,0,39.67-95.89A55.77,55.77,0,0,0,63.45,10.2Z"/><path class="cls-4" d="M34.75,59.32l12.19,7-12.19,7a8.56,8.56,0,0,1-8.56,0L14,66.36l12.19-7A8.56,8.56,0,0,1,34.75,59.32Zm0,0Zm12.19,7Zm-12.19,7Zm-8.56,0ZM14,66.36Zm12.19-7Zm8.56,0Zm0,0a8.56,8.56,0,0,0-8.56,0L14,66.36l12.19,7a8.56,8.56,0,0,0,8.56,0l12.19-7Z"/><path class="cls-3" d="M30.47,76.67a10.59,10.59,0,0,1-5.34-1.43L9.74,66.36l15.39-8.88a10.72,10.72,0,0,1,10.68,0h0L51.2,66.36,35.82,75.24A10.73,10.73,0,0,1,30.47,76.67ZM18.25,66.36l9,5.2a6.47,6.47,0,0,0,6.43,0l9-5.2-9-5.2h0a6.47,6.47,0,0,0-6.43,0Z"/><path class="cls-4" d="M43,87.67l12.19-7V94.71a8.56,8.56,0,0,1-4.28,7.41l-12.19,7V95.08A8.55,8.55,0,0,1,43,87.67Zm0,0Zm12.19-7Zm0,14.08Zm-4.28,7.41Zm-12.19,7Zm0-14.08ZM43,87.67Zm0,0a8.55,8.55,0,0,0-4.28,7.41v14.08l12.19-7a8.56,8.56,0,0,0,4.28-7.41V80.63Z"/><path class="cls-3" d="M36.58,112.84V95.08a10.72,10.72,0,0,1,5.34-9.25h0l15.39-8.88V94.71A10.71,10.71,0,0,1,52,104Zm7.47-23.33a6.44,6.44,0,0,0-3.21,5.57v10.39l9-5.19a6.46,6.46,0,0,0,3.21-5.57V84.31Z"/><path class="cls-4" d="M71.65,94.71V80.63l12.2,7a8.56,8.56,0,0,1,4.28,7.41v14.08l-12.2-7A8.58,8.58,0,0,1,71.65,94.71Zm0,0Zm0-14.08Zm12.2,7Zm4.28,7.41Zm0,14.08Zm-12.2-7Zm-4.28-7.41Zm0,0a8.58,8.58,0,0,0,4.28,7.41l12.2,7V95.08a8.56,8.56,0,0,0-4.28-7.41l-12.2-7Z"/><path class="cls-3" d="M90.25,112.84,74.87,104a10.7,10.7,0,0,1-5.34-9.25V76.94l15.38,8.88a10.74,10.74,0,0,1,5.34,9.26ZM73.78,94.71A6.45,6.45,0,0,0,77,100.28l9,5.19V95.08a6.43,6.43,0,0,0-3.22-5.57l-9-5.2v10.4Z"/><path class="cls-3" d="M96.36,76.67A10.61,10.61,0,0,1,91,75.24h0L75.63,66.36,91,57.48a10.74,10.74,0,0,1,10.69,0l15.38,8.88-15.38,8.88A10.62,10.62,0,0,1,96.36,76.67Zm-3.21-5.11a6.47,6.47,0,0,0,6.43,0l9-5.2-9-5.2a6.47,6.47,0,0,0-6.43,0l-9,5.2Z"/><path class="cls-3" d="M69.53,55.78V38a10.72,10.72,0,0,1,5.34-9.26l15.38-8.88V37.64a10.72,10.72,0,0,1-5.34,9.26h0ZM86,27.25l-9,5.2A6.43,6.43,0,0,0,73.78,38V48.41l9-5.2A6.43,6.43,0,0,0,86,37.64Z"/><path class="cls-3" d="M57.31,55.78,41.92,46.9a10.73,10.73,0,0,1-5.34-9.26V19.88L52,28.76A10.71,10.71,0,0,1,57.31,38ZM40.84,27.25V37.64a6.43,6.43,0,0,0,3.21,5.57l9,5.2V38a6.45,6.45,0,0,0-3.21-5.57Z"/><path class="cls-3" d="M73.78,84.31l-7.15-4.12a6.42,6.42,0,0,0-6.43,0l-7.15,4.12V76.06a6.45,6.45,0,0,0-3.21-5.57l-7.15-4.13,7.15-4.12a6.47,6.47,0,0,0,3.21-5.57V48.41l7.15,4.13a6.47,6.47,0,0,0,6.43,0l7.15-4.13v8.26A6.42,6.42,0,0,0,77,62.23l7.14,4.13L77,70.49a6.43,6.43,0,0,0-3.22,5.57Zm-22.58-18,.76.44a10.73,10.73,0,0,1,5.35,9.26v.88l.76-.44a10.74,10.74,0,0,1,10.69,0l.77.44v-.88a10.72,10.72,0,0,1,5.34-9.26l.77-.44-.77-.44a10.7,10.7,0,0,1-5.34-9.25v-.89l-.77.44a10.69,10.69,0,0,1-10.69,0l-.76-.44v.89A10.71,10.71,0,0,1,52,65.92Z"/><path class="cls-5" d="M137,36.2l6.82-3.94h14.88l6.83,3.94V44H157.3V39.32H145.24v9.82h13.47l6.83,4v17L158.71,74H143.24l-6.82-3.94V62.26h8.23V67H157.3V56.79H143.83L137,52.85Z"/><path class="cls-5" d="M192.54,73.73H184.3V39.61H173.19v-7h30.47v7H192.54Z"/><path class="cls-5" d="M242.13,73.73H234l-3.12-8.88H215.48l-3.12,8.88h-8.11L219,32.56h8.47ZM218,57.79h10.42l-5.12-14.88h-.12Z"/><path class="cls-5" d="M271.37,73.73,262.55,58.2h-5.12V73.73h-8.24V32.56h22.3l6.82,3.94V54.26l-6.82,3.94,8.94,15.53ZM257.43,51.14h12.64V39.61H257.43Z"/><path class="cls-5" d="M320.67,52.26h15V70.09L328.84,74H312.2l-6.83-3.94V36.2l6.83-3.94h16.64l6.83,3.94v8.41h-8.24V39.32H313.61V67h13.82V59.32h-6.76Z"/><path class="cls-5" d="M346.26,32.56h8.23V66.67h14.06v7.06H346.26Z"/><path class="cls-5" d="M401.44,74H383l-6.82-3.94V36.2L383,32.26h18.42l6.82,3.94V70.09Zm-17-7.06H400V39.32H384.44Z"/><path class="cls-5" d="M443.44,52.38v.12l5.12,2.94V69.79l-6.83,3.94H419.44V32.56h22.29l6.83,3.94V49.44Zm-15.77-3.47h12.65v-9.3H427.67Zm0,17.76h12.65V56H427.67Z"/><path class="cls-5" d="M493.5,73.73h-8.12l-3.11-8.88H466.85l-3.12,8.88h-8.11l14.7-41.17h8.47ZM469.32,57.79h10.42l-5.12-14.88h-.12Z"/><path class="cls-5" d="M500.56,32.56h8.24V66.67h14.06v7.06h-22.3Z"/><path class="cls-5" d="M138.13,100.7l-2.86-1.77.32-3h2.61l-.26,2.39H145l.65-6.14h-5.36l.24-2.39h5.36l.57-5.5h-7.08l-.24,2.38h-2.61l.31-3,3.22-1.78h6.25l2.85,1.78-.63,5.95L146.15,91l0,.05,2.14,1.32-.68,6.6-3.21,1.77Z"/><path class="cls-5" d="M164,100.57h-10.7L155.25,82H166l2.85,1.77-1.54,15Zm-7.85-2.39h8.5l1.44-13.76h-8.5Z"/><path class="cls-5" d="M190.74,98.79l-3.22,1.78h-6.8l.24-2.31h7.3L188.6,95h-4.27l-2.85-1.78.42-4.13,3.22-1.77h6.54l-.24,2.3h-7l-.31,3.07h4.26l2.85,1.78Z"/><path class="cls-5" d="M198.72,98.26H206l-.24,2.31H199l-2.85-1.78,1-9.69,3.22-1.77h6.77l-.24,2.3H199.6Z"/><path class="cls-5" d="M221.44,100.7h-.68L219,99.61l-2,1.09h-3.43l-2.85-1.77,1-10L215,87.2h3.43l1.73,1.08,2-1.08h.68Zm-8.08-2.3h5.78l.91-8.9h-5.77Z"/><path class="cls-5" d="M238,100.57h-2.54l1.13-11.07h-6.05l-1.12,11.07h-2.54l1.39-13.37h1.91l.5,1.08,2-1.08h3.69L239.17,89Z"/><path class="cls-5" d="M254.47,100.57h-2.54l1.13-11.07h-6l-1.13,11.07h-2.54l1.39-13.37h1.91l.5,1.08,2-1.08h3.69L255.67,89Z"/><path class="cls-5" d="M262.39,100.57h-2.54l1.36-13.24h2.54Zm-.68-19.33h2.8l-.29,2.83h-2.8Z"/><path class="cls-5" d="M278.89,100.57h-2.53l1.12-11.07h-6l-1.12,11.07h-2.54l1.38-13.37h1.91l.5,1.08,2-1.08h3.69L280.1,89Z"/><path class="cls-5" d="M296.78,87.2,295,104.09l-3.25,1.77H285l.26-2.3h7.27l.45-4.37-2,1.09h-3.69l-2.85-1.78,1-9.53,3.22-1.77h3.69l1.72,1.08,2-1.08ZM293.12,98,294,89.5h-6L287.08,98Z"/><path class="cls-5" d="M319.11,100.57h-7.29L309,98.79,310,89l3.21-1.77h4.26L320.31,89l-.62,5.88h-7.8l-.34,3.41h7.8Zm-7-8h5.26l.31-3h-5.26Z"/><path class="cls-5" d="M328.29,93.82l-3.84-6.49h2.82l2.56,4.55,3.51-4.55h2.82l-5.23,6.49,4,6.75h-2.75l-2.77-4.85-3.76,4.85h-2.75Z"/><path class="cls-5" d="M343.14,100.7l-1.75-1.09-.65,6.25H338.2l2-18.66h1.91l.5,1.08,2-1.08h3.94L351.36,89l-1.05,10-3.22,1.77Zm-1.62-2.3h6.31l.91-8.9h-6.3Z"/><path class="cls-5" d="M365.87,100.57h-7.3l-2.85-1.78,1-9.82L360,87.2h4.26L367.07,89l-.63,5.88h-7.79l-.34,3.41h7.79Zm-7-8h5.25l.32-3H359.2Z"/><path class="cls-5" d="M374.92,89.63l-1.13,10.94h-2.53l1.36-13.24h1.9l.53,1.09,2-1.09h2.9l-.23,2.3Z"/><path class="cls-5" d="M382.94,87.33h2.41l.24-2.22,2.69-1.49-.39,3.71H391l-.24,2.3h-3.14l-.89,8.63h3.14l-.23,2.31H387l-2.85-1.78.95-9.16h-2.41Z"/><path class="cls-5" d="M412.55,98.79l-3.22,1.78h-6.8l.24-2.31h7.29L410.4,95h-4.26l-2.85-1.78.42-4.13,3.22-1.77h6.53l-.23,2.3h-7l-.31,3.07h4.26L413,94.48Z"/><path class="cls-5" d="M425.81,100.7h-5.05l-2.85-1.77,1-10,3.22-1.77h5.05L430.07,89l-1.05,10Zm-5.31-2.3h6l.91-8.9h-6Z"/><path class="cls-5" d="M434.43,98.79l1.81-17.55h2.54l-1.76,17h3.14l-.23,2.31h-2.64Z"/><path class="cls-5" d="M445.1,87.33h2.54L446.49,98.4h6l1.15-11.07h2.54l-1.39,13.37h-1.91l-.52-1.09-2,1.09h-3.69l-2.85-1.77Z"/><path class="cls-5" d="M460.56,87.33H463l.24-2.22,2.69-1.49-.39,3.71h3.14l-.24,2.3h-3.13l-.89,8.63h3.14l-.24,2.31h-2.64l-2.85-1.78.94-9.16h-2.41Z"/><path class="cls-5" d="M474.68,100.57h-2.54l1.36-13.24H476ZM474,81.24h2.8l-.29,2.83h-2.8Z"/><path class="cls-5" d="M488.12,100.7h-5.05l-2.85-1.77,1-10,3.22-1.77h5L492.38,89l-1,10Zm-5.31-2.3h6l.92-8.9h-6Z"/><path class="cls-5" d="M507.68,100.57h-2.53l1.12-11.07h-6l-1.13,11.07h-2.53L498,87.2h1.91l.5,1.08,2-1.08H506L508.89,89Z"/><path class="cls-5" d="M523.08,98.79l-3.21,1.78h-6.8l.23-2.31h7.3l.34-3.25h-4.26l-2.85-1.78.42-4.13,3.21-1.77H524l-.24,2.3h-7l-.31,3.07h4.26l2.85,1.78Z"/><path class="cls-5" d="M114.05,11.48V5.53h2.64a3.43,3.43,0,0,1,1.2.16,1.36,1.36,0,0,1,.66.58,1.64,1.64,0,0,1,.26.88,1.46,1.46,0,0,1-.41,1.06,2.09,2.09,0,0,1-1.27.57,1.72,1.72,0,0,1,.47.29l.16.16.08.08.09.11.17.21.16.23,1,1.62h-1l-.78-1.23c-.24-.37-.42-.64-.56-.82a1.74,1.74,0,0,0-.42-.4,1,1,0,0,0-.35-.16l-.18,0h-1.18v2.64Zm.78-3.32h1.7a2.48,2.48,0,0,0,.8-.11,1,1,0,0,0,.49-.36.94.94,0,0,0,.17-.54.89.89,0,0,0-.3-.69,1.46,1.46,0,0,0-1-.27h-1.89Z"/><path class="cls-5" d="M116.32,3.05a5.46,5.46,0,1,0,5.46,5.46A5.46,5.46,0,0,0,116.32,3.05Zm0,10.23a4.77,4.77,0,1,1,4.78-4.77A4.78,4.78,0,0,1,116.32,13.28Z"/></svg>